<?xml version="1.0" encoding="utf-8"?>
<!-- Generator: Adobe Illustrator 25.0.0, SVG Export Plug-In . SVG Version: 6.00 Build 0)  -->
<svg version="1.1" id="Ebene_1" xmlns="http://www.w3.org/2000/svg" xmlns:xlink="http://www.w3.org/1999/xlink" x="0px" y="0px"
	 viewBox="0 0 1267.1 439.8" style="enable-background:new 0 0 1267.1 439.8;" xml:space="preserve">
<style type="text/css">
	.st0{fill:#002B44;}
	.st1{fill:#A90D00;}
</style>
<path class="st0" d="M340.8,142.1c18.8-9.1,31-27.3,31-49.5c0-32.8-25.4-56.3-59.5-56.3h-68.7v170.2h36.8v-58.1h23.6l33.2,58.1h41.1
	L340.8,142.1z M309.9,114.4h-29.5V70.3h29.5c15.4,0,24.6,9.3,24.6,22C334.5,105.1,325.3,114.4,309.9,114.4z"/>
<path class="st0" d="M658.9,36.3h-34.8l-66.7,170.2h39.1l11.7-32.3h67.7l11.9,32.3h40L658.9,36.3z M619.7,142.1l22.2-60.8l22.4,60.8
	H619.7z"/>
<rect x="753.2" y="168.5" class="st0" width="37.6" height="38"/>
<g>
	<path class="st0" d="M896.6,72.1c-17.9,0-33.6,7.5-43.5,19.3l-6.9-16.2h-24.4v131.3h35.5v-69c0-21.1,11.2-34.2,29.5-34.2
		c15.4,0,22.9,9.6,22.9,29.4v73.8h35.5v-79.6C945.2,93.7,926.5,72.1,896.6,72.1"/>
	<path class="st0" d="M1005.3,91.3L999,75.2h-22.8v131.3h35.5v-68.2c0-21.5,7.9-30.3,27.9-30.3h15.4V74.4h-11.7
		C1026.5,74.4,1014.6,79.7,1005.3,91.3"/>
</g>
<polygon class="st0" points="1232,75.2 1206.2,153.7 1170.9,76.1 1160.9,76.1 1126.7,153.4 1100.8,75.2 1064.7,75.2 1108.2,206.5 
	1136.7,206.5 1165.9,138.6 1195.6,206.5 1224.2,206.5 1267.1,75.2 "/>
<path class="st0" d="M121.6,32.2v35.1c29.9,0,54.1,24.2,54.1,54.1c0,29.9-24.2,54.1-54.1,54.1s-54.1-24.2-54.1-54.1h-35
	c0,49.3,39.9,89.2,89.2,89.2s89.2-39.9,89.2-89.2S170.9,32.2,121.6,32.2"/>
<path class="st0" d="M449.3,159.6c-21.1-21.1-21.1-55.4,0-76.6s55.4-21.1,76.5,0l24.8-24.8c-34.8-34.8-91.3-34.8-126.1,0
	s-34.8,91.3,0,126.1s91.3,34.8,126.1,0l-24.8-24.8C504.7,180.8,470.4,180.8,449.3,159.6"/>
<path class="st1" d="M89.4,0c-0.1,0-0.1,0-0.2,0C39.9,0,0,39.9,0,89.2h35.1c0-29.9,24.2-54.1,54.1-54.1c0.1,0,0.1,0,0.2,0V0z"/>
<rect x="1187.9" y="255.7" class="st0" width="11.6" height="11"/>
<rect x="1167.8" y="255.7" class="st0" width="11.6" height="11"/>
<rect x="1135.1" y="426.4" class="st0" width="11.6" height="12.1"/>
<path class="st0" d="M1125.9,413c0-14.9-10.4-27-26.1-27c-15,0-26.3,11.5-26.3,26.9c0,15.3,11.3,26.9,26.3,26.9
	c11.4,0,20.8-6.6,24.9-17.4h-11.1c-2.7,4.7-7.7,7.5-13.8,7.5c-8.4,0-14.4-5.1-15.7-13.4h41.6C1125.8,415.3,1125.9,414.2,1125.9,413z
	 M1084.3,407.9c1.7-7.6,7.5-12.4,15.4-12.4c7.8,0,13.7,4.6,15.6,12.4H1084.3z"/>
<path class="st0" d="M1064.8,387c-7,0-12,2.4-15.7,7.3l-1.8-7h-7.1v51.2h10.5v-27.3c0-9.3,4.3-14.2,13.1-14.2h5.6v-10L1064.8,387
	L1064.8,387z"/>
<path class="st0" d="M1006.8,386.1c-6.8,0-12.7,2.6-16.6,7v-24.2h-10.5v69.6h10.5v-27.4c0-9.1,5.8-15.5,13.8-15.5
	c7.8,0,11.8,5,11.8,14.2v28.7h10.5v-30.9C1026.3,394.4,1018.8,386.1,1006.8,386.1"/>
<path class="st0" d="M968.7,413c0-14.9-10.4-27-26.1-27c-15,0-26.3,11.5-26.3,26.9c0,15.3,11.3,26.9,26.3,26.9
	c11.4,0,20.8-6.6,24.9-17.4h-11.1c-2.7,4.7-7.7,7.5-13.8,7.5c-8.4,0-14.4-5.1-15.7-13.4h41.6C968.6,415.3,968.7,414.2,968.7,413z
	 M927.2,407.9c1.7-7.6,7.5-12.4,15.4-12.4c7.8,0,13.7,4.6,15.6,12.4H927.2z"/>
<polygon class="st0" points="883.6,428.3 883.6,372.1 872.7,372.1 872.7,438.5 911.2,438.5 911.2,428.3 "/>
<path class="st0" d="M821.4,368.9V392c-4.5-3.8-10.3-6-16.9-6c-15.5,0-26.6,11.4-26.6,26.9c0,15.4,11.1,26.9,26.6,26.9
	c7.2,0,13.5-2.6,18.1-7.1l1.3,5.8h8v-69.6H821.4z M805.3,429.7c-9.7,0-16.7-7.1-16.7-16.8s7.1-16.8,16.7-16.8s16.8,7.2,16.8,16.8
	C822.1,422.4,815,429.7,805.3,429.7z"/>
<path class="st0" d="M747.9,386.1c-7.5,0-13.8,3.1-17.7,8.3l-2-7.1h-7.3v51.2h10.5v-27.4c0-9,5.7-15.5,13.8-15.5
	c7.7,0,11.8,4.9,11.8,14.2v28.7h10.5v-30.9C767.3,395,759.9,386.1,747.9,386.1z"/>
<path class="st0" d="M683.7,439.8c14.1,0,23.3-9.1,23.3-22.9v-29.6h-10.5v28.1c0,8.8-4.8,14.3-12.7,14.3c-7.9,0-12.8-5.4-12.8-14.3
	v-28.1h-10.5v29.6C660.4,430.7,669.7,439.8,683.7,439.8z"/>
<path class="st0" d="M604,386.1c-6.8,0-13,3.5-16.7,9c-2.9-5.6-8.4-9-15.4-9c-6.2,0-12.1,3-15.9,7.8l-1.8-6.6h-7.5v51.2h10.5v-28
	c0-8.7,5.3-14.9,12.1-14.9c6.4,0,10,4.7,10,13v30h10.3v-28c0-8.7,5.2-14.9,12-14.9c6.4,0,10,4.7,10,13v30h10.5v-32.6
	C622.1,394.3,614.8,386.1,604,386.1L604,386.1z"/>
<path class="st0" d="M509.7,439.8c14.1,0,23.3-9.1,23.3-22.9v-29.6h-10.5v28.1c0,8.8-4.8,14.3-12.7,14.3c-7.9,0-12.8-5.4-12.8-14.3
	v-28.1h-10.5v29.6C486.4,430.7,495.6,439.8,509.7,439.8z"/>
<rect x="462.4" y="387.3" class="st0" width="10.5" height="51.2"/>
<rect x="462.2" y="368.5" class="st0" width="10.9" height="10.9"/>
<path class="st0" d="M437.4,368.9V392c-4.5-3.8-10.3-6-16.9-6c-15.5,0-26.6,11.4-26.6,26.9c0,15.4,11.1,26.9,26.6,26.9
	c7.2,0,13.5-2.6,18.1-7.1l1.3,5.8h8v-69.6H437.4z M421.4,429.7c-9.7,0-16.7-7.1-16.7-16.8s7.1-16.8,16.7-16.8
	c9.6,0,16.8,7.2,16.8,16.8C438.2,422.4,431,429.7,421.4,429.7z"/>
<path class="st0" d="M360.4,439.8c14.1,0,23.3-9.1,23.3-22.9v-29.6h-10.5v28.1c0,8.8-4.8,14.3-12.7,14.3c-7.9,0-12.8-5.4-12.8-14.3
	v-28.1h-10.5v29.6C337.1,430.7,346.3,439.8,360.4,439.8z"/>
<path class="st0" d="M322.8,428.9c-6.2,0-9.6-3.4-9.6-9.5v-23.1h15.2v-9h-15.2v-12h-1.8l-17.8,19v2h9.2v24
	c0,11.3,6.9,18.2,18.2,18.2h7.8v-9.6L322.8,428.9L322.8,428.9z"/>
<path class="st0" d="M264.1,439.5c13.5,0,24.2-7.1,24.2-20.4c0-14.3-12.2-17.2-22.5-19.8c-7.9-1.9-14.7-3.5-14.7-9.7
	c0-5.4,5.5-8.4,12.1-8.4c6.9,0,12.4,3.6,12.4,10.2h10.8c0-12.5-8.5-20.4-22.9-20.4c-14.2,0-23.2,7.1-23.2,19.1
	c0,13.7,11.7,16.5,21.8,19c8,1.9,15.1,3.5,15.1,10.2c0,6.1-6,9.8-13.1,9.8c-7.8,0-13.9-4.1-13.9-11.5H239
	C239,431.2,249.2,439.5,264.1,439.5"/>
<path class="st0" d="M1245.3,274.3c-7,0-12,2.4-15.7,7.3l-1.8-7h-7.1v51.2h10.5v-27.3c0-9.3,4.3-14.2,13.1-14.2h5.6v-10H1245.3z"/>
<path class="st0" d="M1183.7,327c14.1,0,23.3-9.1,23.3-22.9v-29.6h-10.5v28.1c0,8.8-4.8,14.3-12.8,14.3c-7.9,0-12.8-5.4-12.8-14.3
	v-28.1h-10.5v29.6C1160.4,317.9,1169.6,327,1183.7,327"/>
<path class="st0" d="M1152.5,275h-14.8v-4.1c0-5.7,2.5-8.1,8.2-8.1h6.5v-8.4h-8.6c-11.2,0-16.4,5.8-16.4,16.2v4.3h-9.6v8.8h9.6v42
	h10.5v-42h14.5L1152.5,275L1152.5,275z"/>
<rect x="1073.1" y="256.2" class="st0" width="10.5" height="69.6"/>
<path class="st0" d="M1050.6,274.5l-1.2,6.4c-4.7-4.8-11.2-7.6-18.7-7.6c-15.3,0-26.7,11.4-26.7,26.8c0,15.4,11.4,26.9,26.7,26.9
	c7.5,0,13.9-2.8,18.6-7.5l1,6.2h8.5v-51.2H1050.6z M1031.4,317c-9.7,0-16.8-7.2-16.8-16.8s7.1-16.8,16.8-16.8
	c9.7,0,16.7,7.1,16.7,16.8C1048.1,309.8,1041.1,317,1031.4,317z"/>
<path class="st0" d="M938.5,281.7l-1.8-7.1h-7.1v51.2h10.5v-27.3c0-9.3,4.3-14.2,13.1-14.2h4.3v-9.7h-3.3
	C947.2,274.5,942.2,276.9,938.5,281.7z"/>
<path class="st0" d="M992.2,316.1c-6.3,0-9.8-3.5-9.8-9.9v-22.5h15.6v-9h-15.6V260h-10.5v14.7h-10.8v9h10.8v23.1
	c0,11.7,7.4,19.1,19,19.1h7.4v-9.8L992.2,316.1L992.2,316.1z"/>
<path class="st0" d="M891,273.3c-15.7,0-27.4,11.4-27.4,26.9c0,15.4,11.7,26.9,27.4,26.9c15.6,0,27.4-11.5,27.4-26.9
	C918.3,284.7,906.6,273.3,891,273.3z M891,317c-9.7,0-16.7-7-16.7-16.8s7-16.8,16.7-16.8s16.7,7,16.7,16.8
	C907.6,310,900.6,317,891,317z"/>
<path class="st0" d="M829.3,273.3c-7.4,0-13.8,2.8-18.5,7.5l-2-6.3h-7.1v69.6h10.5v-23.3c4.5,3.9,10.4,6.2,17,6.2
	c15.3,0,26.5-11.5,26.5-26.9C855.8,284.7,844.6,273.3,829.3,273.3z M828.5,317c-9.7,0-16.8-7.2-16.8-16.8s7.1-16.8,16.8-16.8
	s16.7,7.1,16.7,16.8C845.2,309.8,838.1,317,828.5,317z"/>
<path class="st0" d="M769.6,327c12.5,0,20.8-6.5,20.8-16.4c0-12.6-10.5-14.3-19.2-15.8c-6.2-1-11.4-1.9-11.4-6.4
	c0-3.7,3.6-6.2,9.4-6.2c6.2,0,9.9,2.6,10.1,7.5h10c-0.2-9.9-7.9-16.4-19.8-16.4c-11.9,0-19.9,6.3-19.9,15.5
	c0,11.9,10.1,13.8,18.6,15.3c6.3,1.1,11.8,2.2,11.8,7c0,4.3-4.3,6.7-10,6.7c-6.2,0-10.7-2.8-11-8.2h-10.3
	C749,320.2,757.2,327,769.6,327"/>
<path class="st0" d="M715.2,273.3c-15,0-26.3,11.5-26.3,26.9c0,15.3,11.3,26.9,26.3,26.9c11.4,0,20.8-6.6,24.9-17.4H729
	c-2.7,4.7-7.7,7.5-13.8,7.5c-8.4,0-14.4-5.1-15.7-13.4h41.6c0.1-1.1,0.2-2.3,0.2-3.5l0,0C741.3,285.4,730.9,273.3,715.2,273.3z
	 M699.8,295.2c1.7-7.6,7.5-12.4,15.4-12.4c7.8,0,13.7,4.6,15.6,12.4H699.8z"/>
<path class="st0" d="M667.2,256.2v23.1c-4.5-3.8-10.3-6-16.9-6c-15.5,0-26.6,11.4-26.6,26.9c0,15.4,11.1,26.9,26.6,26.9
	c7.2,0,13.5-2.6,18.1-7.1l1.4,5.8h8v-69.6L667.2,256.2L667.2,256.2z M651.1,317c-9.7,0-16.7-7.1-16.7-16.8s7.1-16.8,16.7-16.8
	s16.8,7.2,16.8,16.8C667.9,309.7,660.8,317,651.1,317z"/>
<path class="st0" d="M593.7,273.4c-7.5,0-13.8,3.1-17.7,8.3l-2-7.1h-7.3v51.2h10.5v-27.4c0-9,5.7-15.5,13.8-15.5
	c7.7,0,11.8,4.9,11.8,14.2v28.7h10.5v-30.9C613.2,282.3,605.7,273.4,593.7,273.4z"/>
<path class="st0" d="M544,274.5l-1.2,6.4c-4.7-4.8-11.2-7.6-18.7-7.6c-15.3,0-26.7,11.4-26.7,26.8c0,15.4,11.4,26.9,26.7,26.9
	c7.5,0,13.9-2.8,18.6-7.5l1,6.2h8.5v-51.2H544z M524.9,317c-9.7,0-16.8-7.2-16.8-16.8s7.1-16.8,16.8-16.8s16.7,7.1,16.7,16.8
	S534.5,317,524.9,317z"/>
<polygon class="st0" points="464.7,315.6 464.7,259.4 453.8,259.4 453.8,325.8 492.3,325.8 492.3,315.6 "/>
<path class="st0" d="M395.9,327c12.5,0,20.8-6.5,20.8-16.4c0-12.6-10.5-14.3-19.2-15.8c-6.2-1-11.4-1.9-11.4-6.4
	c0-3.7,3.6-6.2,9.4-6.2c6.2,0,9.9,2.6,10.1,7.5h10c-0.2-9.9-7.9-16.4-19.8-16.4c-11.9,0-19.9,6.3-19.9,15.5
	c0,11.9,10.1,13.8,18.6,15.3c6.3,1.1,11.8,2.2,11.8,7c0,4.3-4.3,6.7-10,6.7c-6.2,0-10.7-2.8-11-8.2H375
	C375.3,320.2,383.5,327,395.9,327"/>
<path class="st0" d="M355.6,274.5l-1.2,6.4c-4.7-4.8-11.2-7.6-18.7-7.6c-15.3,0-26.7,11.4-26.7,26.8c0,15.4,11.4,26.9,26.7,26.9
	c7.5,0,13.9-2.8,18.6-7.5l1,6.2h8.5v-51.2H355.6z M336.4,317c-9.7,0-16.8-7.2-16.8-16.8s7.1-16.8,16.8-16.8
	c9.7,0,16.7,7.1,16.7,16.8S346.1,317,336.4,317z"/>
<path class="st0" d="M266.7,259.4h-23.4v66.4h23.4c19.5,0,33.7-14,33.7-33.2C300.4,273.3,286.3,259.4,266.7,259.4z M266.4,315.6
	h-12.2v-46.1h12.2c13.4,0,22.9,9.6,22.9,23C289.3,305.9,279.9,315.6,266.4,315.6z"/>
</svg>
